<svg xmlns="http://www.w3.org/2000/svg" viewBox="0 0 1024 1024">
  <defs>
    <linearGradient id="bg" x1="128" y1="128" x2="896" y2="896" gradientUnits="userSpaceOnUse">
      <stop offset="0" stop-color="#111827"/>
      <stop offset="0.52" stop-color="#0f766e"/>
      <stop offset="1" stop-color="#f97316"/>
    </linearGradient>
    <linearGradient id="wave" x1="242" y1="532" x2="782" y2="532" gradientUnits="userSpaceOnUse">
      <stop offset="0" stop-color="#67e8f9"/>
      <stop offset="1" stop-color="#fef3c7"/>
    </linearGradient>
  </defs>
  <rect x="64" y="64" width="896" height="896" rx="208" fill="url(#bg)"/>
  <circle cx="512" cy="426" r="210" fill="#0b1220" opacity="0.42"/>
  <path d="M254 560c52-136 102-136 154 0s102 136 154 0 104-136 208 0"
        fill="none" stroke="url(#wave)" stroke-width="54" stroke-linecap="round"/>
  <path d="M256 440h110c32 0 58 26 58 58v164c0 32-26 58-58 58H256V440Z"
        fill="#e5faff" opacity="0.94"/>
  <path d="M768 440H658c-32 0-58 26-58 58v164c0 32 26 58 58 58h110V440Z"
        fill="#e5faff" opacity="0.94"/>
  <text x="512" y="326" text-anchor="middle"
        font-family="Avenir Next, Inter, Helvetica, Arial, sans-serif"
        font-size="148" font-weight="800" letter-spacing="8" fill="#f8fafc">MLX</text>
  <text x="512" y="828" text-anchor="middle"
        font-family="Avenir Next, Inter, Helvetica, Arial, sans-serif"
        font-size="72" font-weight="700" fill="#f8fafc" opacity="0.92">AUDIO</text>
</svg>
